#N canvas 294 109 821 466 10;
#X obj 16 16 midi-input;
#X obj 16 166 lv2plugin~ flanger;
#X obj 16 194 lv2plugin~ amp;
#X obj 16 139 print;
#X msg 29 40 listplugins;
#X msg 65 89 info;
#X obj 144 61 hsl 128 15 0 1 0 0 empty pan empty -2 -8 0 10 -262144
-1 -1 6350 1;
#X msg 141 81 control pan \$1;
#N canvas 433 184 450 300 subtractive 0;
#X obj 10 30 hsl 128 15 0 1 0 0 subtractive-pan-0 subtractive-pan-0
pan -2 -6 0 10 -262144 -1 -1 6350 1;
#X obj 160 30 nbx 5 14 0 1 0 0 subtractive-pan-0 subtractive-pan-0
empty 0 -6 0 10 -262144 -1 -1 0.5 256 0;
#X obj 10 60 hsl 128 15 0 1 0 0 subtractive-vol-1 subtractive-vol-1
vol -2 -6 0 10 -262144 -1 -1 3810 1;
#X obj 160 60 nbx 5 14 0 1 0 0 subtractive-vol-1 subtractive-vol-1
empty 0 -6 0 10 -262144 -1 -1 0.3 256 0;
#X obj 10 90 hsl 128 15 1 20 0 0 subtractive-cutoff-2 subtractive-cutoff-2
cutoff -2 -6 0 10 -262144 -1 -1 3342 1;
#X obj 160 90 nbx 5 14 1 20 0 0 subtractive-cutoff-2 subtractive-cutoff-2
empty 0 -6 0 10 -262144 -1 -1 6 256 0;
#X obj 10 120 hsl 128 15 0 20 0 0 subtractive-res-3 subtractive-res-3
res -2 -6 0 10 -262144 -1 -1 1905 1;
#X obj 160 120 nbx 5 14 0 20 0 0 subtractive-res-3 subtractive-res-3
empty 0 -6 0 10 -262144 -1 -1 3 256 0;
#X obj 10 150 hsl 128 15 0 1 0 0 subtractive-attack-4 subtractive-attack-4
attack -2 -6 0 10 -262144 -1 -1 127 1;
#X obj 160 150 nbx 5 14 0 1 0 0 subtractive-attack-4 subtractive-attack-4
empty 0 -6 0 10 -262144 -1 -1 0.01 256 0;
#X obj 10 180 hsl 128 15 0 1 0 0 subtractive-decay-5 subtractive-decay-5
decay -2 -6 0 10 -262144 -1 -1 3810 1;
#X obj 160 180 nbx 5 14 0 1 0 0 subtractive-decay-5 subtractive-decay-5
empty 0 -6 0 10 -262144 -1 -1 0.3 256 0;
#X obj 10 210 hsl 128 15 0 1 0 0 subtractive-sustain-6 subtractive-sustain-6
sustain -2 -6 0 10 -262144 -1 -1 6350 1;
#X obj 160 210 nbx 5 14 0 1 0 0 subtractive-sustain-6 subtractive-sustain-6
empty 0 -6 0 10 -262144 -1 -1 0.5 256 0;
#X obj 10 240 hsl 128 15 0 1 0 0 subtractive-release-7 subtractive-release-7
release -2 -6 0 10 -262144 -1 -1 2540 1;
#X obj 160 240 nbx 5 14 0 1 0 0 subtractive-release-7 subtractive-release-7
empty 0 -6 0 10 -262144 -1 -1 0.2 256 0;
#X obj 10 270 hsl 128 15 1 16 0 0 subtractive-nvoices-11 subtractive-nvoices-11
nvoices -2 -6 0 10 -262144 -1 -1 5927 1;
#X obj 160 270 nbx 5 14 1 16 0 0 subtractive-nvoices-11 subtractive-nvoices-11
empty 0 -6 0 10 -262144 -1 -1 8 256 0;
#X obj 10 300 hsl 128 15 0 5 0 0 subtractive-tuning-12 subtractive-tuning-12
tuning -2 -6 0 10 -262144 -1 -1 0 1;
#X obj 160 300 nbx 5 14 0 5 0 0 subtractive-tuning-12 subtractive-tuning-12
empty 0 -6 0 10 -262144 -1 -1 0 256 0;
#X obj 197 3 bng 15 250 50 1 subtractive-init subtractive-init empty
0 -6 0 10 -262144 -1 -1;
#X obj 217 3 tgl 15 1 subtractive-active subtractive-active empty 0
-6 0 10 -262144 -1 -1 1 1;
#X coords 0 -1 1 1 235 330 1 0 0;
#X restore 318 13 pd subtractive;
#X obj 16 115 lv2plugin~ subtractive;
#N canvas 433 184 450 300 flanger 0;
#X obj 10 30 hsl 128 15 0 0.04 0 0 flanger-delay-0 flanger-delay-0
delay -2 -6 0 10 -262144 -1 -1 635 1;
#X obj 160 30 nbx 5 14 0 0.04 0 0 flanger-delay-0 flanger-delay-0 empty
0 -6 0 10 -262144 -1 -1 0.002 256 0;
#X obj 10 60 hsl 128 15 0 1 0 0 flanger-depth-1 flanger-depth-1 depth
-2 -6 0 10 -262144 -1 -1 6350 1;
#X obj 160 60 nbx 5 14 0 1 0 0 flanger-depth-1 flanger-depth-1 empty
0 -6 0 10 -262144 -1 -1 0.5 256 0;
#X obj 10 90 hsl 128 15 0 1 0 0 flanger-feedback-2 flanger-feedback-2
feedback -2 -6 0 10 -262144 -1 -1 1270 1;
#X obj 160 90 nbx 5 14 0 1 0 0 flanger-feedback-2 flanger-feedback-2
empty 0 -6 0 10 -262144 -1 -1 0.1 256 0;
#X obj 10 120 hsl 128 15 0 10 0 0 flanger-freq-3 flanger-freq-3 freq
-2 -6 0 10 -262144 -1 -1 2540 1;
#X obj 160 120 nbx 5 14 0 10 0 0 flanger-freq-3 flanger-freq-3 empty
0 -6 0 10 -262144 -1 -1 2 256 0;
#X obj 10 150 hsl 128 15 0 1 0 0 flanger-level-4 flanger-level-4 level
-2 -6 0 10 -262144 -1 -1 12700 1;
#X obj 160 150 nbx 5 14 0 1 0 0 flanger-level-4 flanger-level-4 empty
0 -6 0 10 -262144 -1 -1 1 256 0;
#X obj 10 180 hsl 128 15 0 1 0 0 flanger-stereo-5 flanger-stereo-5
stereo -2 -6 0 10 -262144 -1 -1 12700 1;
#X obj 160 180 nbx 5 14 0 1 0 0 flanger-stereo-5 flanger-stereo-5 empty
0 -6 0 10 -262144 -1 -1 1 256 0;
#X obj 197 3 bng 15 250 50 1 flanger-init flanger-init empty 0 -6 0
10 -262144 -1 -1;
#X obj 217 3 tgl 15 1 flanger-active flanger-active empty 0 -6 0 10
-262144 -1 -1 1 1;
#X coords 0 -1 1 1 235 210 1 0 0;
#X restore 563 14 pd flanger;
#N canvas 433 184 450 300 amp 0;
#X obj 10 30 hsl 128 15 -20 0 0 0 amp-bass-0 amp-bass-0 bass -2 -6
0 10 -262144 -1 -1 6350 1;
#X obj 160 30 nbx 5 14 -20 20 0 0 amp-bass-0 amp-bass-0 empty 0 -6
0 10 -262144 -1 -1 0 256 0;
#X obj 10 60 hsl 128 15 -20 20 0 0 amp-treble-1 amp-treble-1 treble
-2 -6 0 10 -262144 -1 -1 6350 1;
#X obj 160 60 nbx 5 14 -20 20 0 0 amp-treble-1 amp-treble-1 empty 0
-6 0 10 -262144 -1 -1 0 256 0;
#X obj 10 90 hsl 128 15 -96 10 0 0 amp-gain-2 amp-gain-2 gain -2 -6
0 10 -262144 -1 -1 11502 1;
#X obj 160 90 nbx 5 14 -96 10 0 0 amp-gain-2 amp-gain-2 empty 0 -6
0 10 -262144 -1 -1 0 256 0;
#X obj 10 120 hsl 128 15 -1 1 0 0 amp-balance-3 amp-balance-3 balance
-2 -6 0 10 -262144 -1 -1 6350 1;
#X obj 160 120 nbx 5 14 -1 1 0 0 amp-balance-3 amp-balance-3 empty
0 -6 0 10 -262144 -1 -1 0 256 0;
#X obj 10 150 hsl 128 15 -96 10 0 0 amp-left-4 amp-left-4 left -2 -6
0 10 -233017 -1 -1 0 1;
#X obj 160 150 nbx 5 14 -96 10 0 0 amp-left-4 amp-left-4 empty 0 -6
0 10 -233017 -1 -1 -96 256 0;
#X obj 10 180 hsl 128 15 -96 10 0 0 amp-right-5 amp-right-5 right -2
-6 0 10 -233017 -1 -1 0 1;
#X obj 160 180 nbx 5 14 -96 10 0 0 amp-right-5 amp-right-5 empty 0
-6 0 10 -233017 -1 -1 -96 256 0;
#X obj 197 3 bng 15 250 50 1 amp-init amp-init empty 0 -6 0 10 -262144
-1 -1;
#X obj 217 3 tgl 15 1 amp-active amp-active empty 0 -6 0 10 -262144
-1 -1 1 1;
#X coords 0 -1 1 1 235 210 1 0 0;
#X restore 564 233 pd amp;
#N canvas 0 50 450 300 (subpatch) 0;
#X array scope-l 1764 float 0 black #008b66;
#X array scope-r 1764 float 0 black #a10034;
#X coords 0 0.5 1763 -0.5 200 140 1;
#X restore 15 298 graph;
#X obj 56 239 tabwrite~ scope-l;
#X obj 96 262 tabwrite~ scope-r;
#X obj 66 216 dac~;
#X obj 318 361 loadbang;
#X obj 219 202 tgl 15 0 empty scope empty 17 7 0 10 -262144 -1 -1 1
1;
#X obj 219 222 metro 40;
#X msg 318 383 \; pan 0.5 \; scope 1 \; pd dsp 1;
#X msg 115 39 preset subtractive-2;
#X msg 115 15 preset subtractive-1;
#X msg 41 64 listpresets;
#X obj 183 122 hradio 15 1 0 6 empty empty tuning 0 -8 0 10 -262144
-1 -1 0;
#X msg 183 142 control tuning \$1;
#X connect 0 0 9 0;
#X connect 1 1 2 1;
#X connect 1 2 2 2;
#X connect 2 1 13 0;
#X connect 2 1 15 0;
#X connect 2 2 14 0;
#X connect 2 2 15 1;
#X connect 4 0 9 0;
#X connect 5 0 9 0;
#X connect 6 0 7 0;
#X connect 7 0 9 0;
#X connect 9 0 3 0;
#X connect 9 1 1 1;
#X connect 9 2 1 2;
#X connect 16 0 19 0;
#X connect 17 0 18 0;
#X connect 18 0 13 0;
#X connect 18 0 14 0;
#X connect 20 0 9 0;
#X connect 21 0 9 0;
#X connect 22 0 9 0;
#X connect 23 0 24 0;
#X connect 24 0 9 0;
